<mxfile host="app.diagrams.net" modified="2024-05-15T06:00:08.531Z" agent="Mozilla/5.0 (Windows NT 10.0; Win64; x64) AppleWebKit/537.36 (KHTML, like Gecko) Chrome/124.0.0.0 Safari/537.36" etag="L3NYAC_o8x3M5899QyLv" version="24.4.0" type="github">
  <diagram name="第 1 页" id="gAhneNLGMRocs_wJU73B">
    <mxGraphModel dx="2589" dy="777" grid="1" gridSize="10" guides="1" tooltips="1" connect="1" arrows="1" fold="1" page="1" pageScale="1" pageWidth="827" pageHeight="1169" math="0" shadow="0">
      <root>
        <mxCell id="0" />
        <mxCell id="1" parent="0" />
        <mxCell id="z-uqwMR72b3MVvRLqWOY-3" value="" style="ellipse;whiteSpace=wrap;html=1;gradientColor=#ffffff;dashed=1;fontStyle=1" vertex="1" parent="1">
          <mxGeometry x="758" y="560" width="202" height="160" as="geometry" />
        </mxCell>
        <mxCell id="z-uqwMR72b3MVvRLqWOY-22" value="" style="ellipse;whiteSpace=wrap;html=1;gradientColor=#ffffff;dashed=1;fontStyle=1" vertex="1" parent="1">
          <mxGeometry x="680" y="373" width="180" height="167" as="geometry" />
        </mxCell>
        <mxCell id="z-uqwMR72b3MVvRLqWOY-23" value="交付单据" style="rounded=0;whiteSpace=wrap;html=1;dashed=1;fillColor=#ffe6cc;strokeColor=#d79b00;fontStyle=1;fontSize=12;" vertex="1" parent="1">
          <mxGeometry x="740" y="403" width="60" height="30" as="geometry" />
        </mxCell>
        <mxCell id="z-uqwMR72b3MVvRLqWOY-24" value="商品清单" style="rounded=0;whiteSpace=wrap;html=1;dashed=1;fillColor=#60a917;strokeColor=#2D7600;fontColor=#ffffff;fontStyle=1;fontSize=12;" vertex="1" parent="1">
          <mxGeometry x="707" y="443" width="60" height="30" as="geometry" />
        </mxCell>
        <mxCell id="z-uqwMR72b3MVvRLqWOY-25" value="" style="ellipse;whiteSpace=wrap;html=1;gradientColor=#ffffff;dashed=1;fontStyle=1" vertex="1" parent="1">
          <mxGeometry x="-183" y="250" width="220" height="210" as="geometry" />
        </mxCell>
        <mxCell id="z-uqwMR72b3MVvRLqWOY-26" value="促销记录" style="rounded=0;whiteSpace=wrap;html=1;dashed=1;fillColor=#ffe6cc;strokeColor=#d79b00;fontStyle=1;fontSize=12;" vertex="1" parent="1">
          <mxGeometry x="-110" y="300" width="60" height="30" as="geometry" />
        </mxCell>
        <mxCell id="z-uqwMR72b3MVvRLqWOY-27" value="客户" style="rounded=0;whiteSpace=wrap;html=1;dashed=1;fillColor=#60a917;strokeColor=#2D7600;fontColor=#ffffff;fontStyle=1;fontSize=12;" vertex="1" parent="1">
          <mxGeometry x="-143" y="360" width="60" height="30" as="geometry" />
        </mxCell>
        <mxCell id="z-uqwMR72b3MVvRLqWOY-28" value="营销活动" style="rounded=0;whiteSpace=wrap;html=1;dashed=1;fillColor=#60a917;strokeColor=#2D7600;fontColor=#ffffff;fontStyle=1;fontSize=12;" vertex="1" parent="1">
          <mxGeometry x="-63" y="360" width="60" height="30" as="geometry" />
        </mxCell>
        <mxCell id="z-uqwMR72b3MVvRLqWOY-29" value="地址" style="rounded=0;whiteSpace=wrap;html=1;dashed=1;fillColor=#60a917;strokeColor=#2D7600;fontColor=#ffffff;fontStyle=1;fontSize=12;" vertex="1" parent="1">
          <mxGeometry x="794" y="443" width="60" height="30" as="geometry" />
        </mxCell>
        <mxCell id="z-uqwMR72b3MVvRLqWOY-30" value="施工人员" style="rounded=0;whiteSpace=wrap;html=1;dashed=1;fillColor=#60a917;strokeColor=#2D7600;fontColor=#ffffff;fontStyle=1;fontSize=12;" vertex="1" parent="1">
          <mxGeometry x="750" y="483" width="60" height="30" as="geometry" />
        </mxCell>
        <mxCell id="z-uqwMR72b3MVvRLqWOY-37" value="施工单据" style="rounded=0;whiteSpace=wrap;html=1;dashed=1;fillColor=#ffe6cc;strokeColor=#d79b00;fontStyle=1;" vertex="1" parent="1">
          <mxGeometry x="835" y="585" width="60" height="30" as="geometry" />
        </mxCell>
        <mxCell id="z-uqwMR72b3MVvRLqWOY-38" value="商品清单" style="rounded=0;whiteSpace=wrap;html=1;dashed=1;fillColor=#60a917;strokeColor=#2D7600;fontColor=#ffffff;fontStyle=1;" vertex="1" parent="1">
          <mxGeometry x="779" y="625" width="60" height="30" as="geometry" />
        </mxCell>
        <mxCell id="z-uqwMR72b3MVvRLqWOY-39" value="地址" style="rounded=0;whiteSpace=wrap;html=1;dashed=1;fillColor=#60a917;strokeColor=#2D7600;fontColor=#ffffff;fontStyle=1;" vertex="1" parent="1">
          <mxGeometry x="858" y="624" width="60" height="30" as="geometry" />
        </mxCell>
        <mxCell id="z-uqwMR72b3MVvRLqWOY-40" value="施工人员" style="rounded=0;whiteSpace=wrap;html=1;dashed=1;fillColor=#60a917;strokeColor=#2D7600;fontColor=#ffffff;fontStyle=1;" vertex="1" parent="1">
          <mxGeometry x="832" y="665" width="60" height="30" as="geometry" />
        </mxCell>
        <mxCell id="z-uqwMR72b3MVvRLqWOY-45" value="" style="ellipse;whiteSpace=wrap;html=1;gradientColor=#ffffff;dashed=1;fontStyle=1" vertex="1" parent="1">
          <mxGeometry x="140" y="875" width="160" height="145" as="geometry" />
        </mxCell>
        <mxCell id="z-uqwMR72b3MVvRLqWOY-46" value="商品" style="rounded=0;whiteSpace=wrap;html=1;dashed=1;fillColor=#ffe6cc;strokeColor=#d79b00;fontStyle=1;fontSize=12;" vertex="1" parent="1">
          <mxGeometry x="185" y="908" width="60" height="30" as="geometry" />
        </mxCell>
        <mxCell id="z-uqwMR72b3MVvRLqWOY-53" value="" style="curved=1;endArrow=none;html=1;dashed=1;endFill=0;strokeWidth=2;fontStyle=1;exitX=0.005;exitY=0.406;exitDx=0;exitDy=0;exitPerimeter=0;" edge="1" parent="1">
          <mxGeometry width="50" height="50" relative="1" as="geometry">
            <mxPoint x="-318.7999999999997" y="543.4400000000003" as="sourcePoint" />
            <mxPoint x="11.846874460678919" y="134.5394523834335" as="targetPoint" />
            <Array as="points">
              <mxPoint x="-130" y="560" />
              <mxPoint x="60" y="510" />
              <mxPoint x="90" y="243" />
            </Array>
          </mxGeometry>
        </mxCell>
        <mxCell id="z-uqwMR72b3MVvRLqWOY-54" value="" style="curved=1;endArrow=none;html=1;dashed=1;endFill=0;strokeWidth=2;fontStyle=1;" edge="1" parent="1">
          <mxGeometry width="50" height="50" relative="1" as="geometry">
            <mxPoint x="380" y="1090" as="sourcePoint" />
            <mxPoint x="890" y="1170" as="targetPoint" />
            <Array as="points">
              <mxPoint x="290" y="770" />
              <mxPoint x="590" y="660" />
              <mxPoint x="780" y="710" />
              <mxPoint x="830" y="850" />
            </Array>
          </mxGeometry>
        </mxCell>
        <mxCell id="z-uqwMR72b3MVvRLqWOY-55" value="" style="curved=1;endArrow=none;html=1;dashed=1;endFill=0;strokeWidth=2;fontStyle=1;exitX=0.193;exitY=0.9;exitDx=0;exitDy=0;exitPerimeter=0;" edge="1" parent="1">
          <mxGeometry width="50" height="50" relative="1" as="geometry">
            <mxPoint x="-48.07999999999993" y="1156" as="sourcePoint" />
            <mxPoint x="390" y="1270" as="targetPoint" />
            <Array as="points">
              <mxPoint x="70" y="880" />
              <mxPoint x="160" y="780" />
              <mxPoint x="240" y="760" />
              <mxPoint x="300" y="780" />
              <mxPoint x="350" y="840" />
            </Array>
          </mxGeometry>
        </mxCell>
        <mxCell id="z-uqwMR72b3MVvRLqWOY-56" value="" style="curved=1;endArrow=none;html=1;dashed=1;endFill=0;strokeWidth=2;fontStyle=1;" edge="1" parent="1">
          <mxGeometry width="50" height="50" relative="1" as="geometry">
            <mxPoint x="320" y="490" as="sourcePoint" />
            <mxPoint x="10" y="520" as="targetPoint" />
            <Array as="points">
              <mxPoint x="180" y="590" />
              <mxPoint x="10" y="520" />
            </Array>
          </mxGeometry>
        </mxCell>
        <mxCell id="z-uqwMR72b3MVvRLqWOY-57" value="" style="curved=1;endArrow=none;html=1;dashed=1;endFill=0;strokeWidth=2;entryX=1;entryY=0;entryDx=0;entryDy=0;" edge="1" parent="1">
          <mxGeometry width="50" height="50" relative="1" as="geometry">
            <mxPoint x="650" y="680" as="sourcePoint" />
            <mxPoint x="903.1168824543147" y="221.5937956643404" as="targetPoint" />
            <Array as="points">
              <mxPoint x="640" y="660" />
              <mxPoint x="630" y="550" />
              <mxPoint x="640" y="440" />
              <mxPoint x="780" y="240" />
            </Array>
          </mxGeometry>
        </mxCell>
        <mxCell id="z-uqwMR72b3MVvRLqWOY-58" value="" style="curved=1;endArrow=none;html=1;dashed=1;endFill=0;strokeWidth=2;endSize=4;entryX=0.334;entryY=0.029;entryDx=0;entryDy=0;entryPerimeter=0;" edge="1" parent="1">
          <mxGeometry width="50" height="50" relative="1" as="geometry">
            <mxPoint x="200" y="770" as="sourcePoint" />
            <mxPoint x="154.96000000000004" y="75.96000000000004" as="targetPoint" />
            <Array as="points">
              <mxPoint x="330" y="570" />
              <mxPoint x="300" y="160" />
              <mxPoint x="210" y="70" />
            </Array>
          </mxGeometry>
        </mxCell>
        <mxCell id="z-uqwMR72b3MVvRLqWOY-61" value="&lt;b&gt;&lt;font style=&quot;font-size: 22px&quot;&gt;采购域&lt;/font&gt;&lt;/b&gt;" style="text;html=1;align=center;verticalAlign=middle;resizable=0;points=[];autosize=1;strokeColor=none;fontSize=12;fontColor=#3333FF;" vertex="1" parent="1">
          <mxGeometry x="539" y="700" width="90" height="40" as="geometry" />
        </mxCell>
        <mxCell id="z-uqwMR72b3MVvRLqWOY-62" value="&lt;font style=&quot;font-size: 20px&quot;&gt;&lt;b&gt;商品子域&lt;/b&gt;&lt;/font&gt;" style="text;html=1;align=center;verticalAlign=middle;resizable=0;points=[];autosize=1;strokeColor=none;fontSize=12;fontColor=#3333FF;" vertex="1" parent="1">
          <mxGeometry x="183" y="807" width="100" height="20" as="geometry" />
        </mxCell>
        <mxCell id="z-uqwMR72b3MVvRLqWOY-63" value="&lt;font style=&quot;font-size: 21px&quot;&gt;&lt;b&gt;BOM域&lt;/b&gt;&lt;/font&gt;" style="text;html=1;align=center;verticalAlign=middle;resizable=0;points=[];autosize=1;strokeColor=none;fontSize=12;rotation=90;fontColor=#3333FF;" vertex="1" parent="1">
          <mxGeometry x="185" y="595" width="90" height="40" as="geometry" />
        </mxCell>
        <mxCell id="z-uqwMR72b3MVvRLqWOY-64" value="&lt;font style=&quot;font-size: 20px&quot; color=&quot;#3333ff&quot;&gt;&lt;b&gt;履约子域&lt;/b&gt;&lt;/font&gt;" style="text;html=1;align=center;verticalAlign=middle;resizable=0;points=[];autosize=1;strokeColor=none;fontSize=12;rotation=90;" vertex="1" parent="1">
          <mxGeometry x="653" y="557" width="100" height="20" as="geometry" />
        </mxCell>
        <mxCell id="z-uqwMR72b3MVvRLqWOY-65" value="&lt;font size=&quot;1&quot;&gt;&lt;b style=&quot;font-size: 20px&quot;&gt;销售域&lt;/b&gt;&lt;/font&gt;" style="text;html=1;align=center;verticalAlign=middle;resizable=0;points=[];autosize=1;strokeColor=none;fontSize=12;fontColor=#3333FF;" vertex="1" parent="1">
          <mxGeometry x="424" y="660" width="80" height="40" as="geometry" />
        </mxCell>
        <mxCell id="z-uqwMR72b3MVvRLqWOY-67" value="&lt;font size=&quot;1&quot;&gt;&lt;b style=&quot;font-size: 20px&quot;&gt;营销子域&lt;/b&gt;&lt;/font&gt;" style="text;html=1;align=center;verticalAlign=middle;resizable=0;points=[];autosize=1;strokeColor=none;fontSize=12;fontColor=#3333FF;" vertex="1" parent="1">
          <mxGeometry x="-140" y="490" width="100" height="20" as="geometry" />
        </mxCell>
        <mxCell id="z-uqwMR72b3MVvRLqWOY-68" value="&lt;b&gt;促销上下文&lt;/b&gt;" style="text;html=1;strokeColor=none;fillColor=none;align=center;verticalAlign=middle;whiteSpace=wrap;rounded=0;fontSize=12;" vertex="1" parent="1">
          <mxGeometry x="-120" y="268" width="100" height="20" as="geometry" />
        </mxCell>
        <mxCell id="z-uqwMR72b3MVvRLqWOY-73" value="&lt;b&gt;履约上下文&lt;/b&gt;" style="text;html=1;strokeColor=none;fillColor=none;align=center;verticalAlign=middle;whiteSpace=wrap;rounded=0;fontSize=12;" vertex="1" parent="1">
          <mxGeometry x="727.5" y="383" width="80" height="20" as="geometry" />
        </mxCell>
        <mxCell id="z-uqwMR72b3MVvRLqWOY-74" value="" style="ellipse;whiteSpace=wrap;html=1;gradientColor=#ffffff;dashed=1;fontStyle=1" vertex="1" parent="1">
          <mxGeometry x="10" y="1035.5" width="170" height="114.5" as="geometry" />
        </mxCell>
        <mxCell id="z-uqwMR72b3MVvRLqWOY-75" value="类目" style="rounded=0;whiteSpace=wrap;html=1;dashed=1;fillColor=#ffe6cc;strokeColor=#d79b00;fontStyle=1;fontSize=12;" vertex="1" parent="1">
          <mxGeometry x="60.5" y="1048" width="60" height="30" as="geometry" />
        </mxCell>
        <mxCell id="z-uqwMR72b3MVvRLqWOY-77" value="" style="ellipse;whiteSpace=wrap;html=1;gradientColor=#ffffff;dashed=1;fontStyle=1" vertex="1" parent="1">
          <mxGeometry x="274" y="58" width="110" height="92" as="geometry" />
        </mxCell>
        <mxCell id="z-uqwMR72b3MVvRLqWOY-78" value="聚合根" style="rounded=0;whiteSpace=wrap;html=1;dashed=1;fillColor=#ffe6cc;strokeColor=#d79b00;fontStyle=1;fontSize=12;" vertex="1" parent="1">
          <mxGeometry x="305" y="100" width="50" height="30" as="geometry" />
        </mxCell>
        <mxCell id="z-uqwMR72b3MVvRLqWOY-81" value="&lt;b&gt;估报价子域&lt;/b&gt;" style="text;html=1;strokeColor=none;fillColor=none;align=center;verticalAlign=middle;whiteSpace=wrap;rounded=0;" vertex="1" parent="1">
          <mxGeometry x="304" y="70" width="60" height="20" as="geometry" />
        </mxCell>
        <mxCell id="z-uqwMR72b3MVvRLqWOY-82" value="" style="ellipse;whiteSpace=wrap;html=1;gradientColor=#ffffff;dashed=1;fontStyle=1" vertex="1" parent="1">
          <mxGeometry x="910" y="760" width="150" height="144" as="geometry" />
        </mxCell>
        <mxCell id="z-uqwMR72b3MVvRLqWOY-83" value="用户" style="rounded=0;whiteSpace=wrap;html=1;dashed=1;fillColor=#ffe6cc;strokeColor=#d79b00;fontStyle=1;fontSize=12;" vertex="1" parent="1">
          <mxGeometry x="959" y="797" width="60" height="30" as="geometry" />
        </mxCell>
        <mxCell id="z-uqwMR72b3MVvRLqWOY-84" value="" style="curved=1;endArrow=none;html=1;dashed=1;endFill=0;strokeWidth=2;" edge="1" parent="1">
          <mxGeometry width="50" height="50" relative="1" as="geometry">
            <mxPoint x="760" y="710" as="sourcePoint" />
            <mxPoint x="1130" y="660" as="targetPoint" />
            <Array as="points">
              <mxPoint x="830" y="740" />
            </Array>
          </mxGeometry>
        </mxCell>
        <mxCell id="z-uqwMR72b3MVvRLqWOY-85" value="授权" style="rounded=0;whiteSpace=wrap;html=1;dashed=1;fillColor=#60a917;strokeColor=#2D7600;fontStyle=1;fontSize=12;fontColor=#ffffff;" vertex="1" parent="1">
          <mxGeometry x="917" y="838" width="60" height="30" as="geometry" />
        </mxCell>
        <mxCell id="z-uqwMR72b3MVvRLqWOY-86" value="&lt;b&gt;用户上下文&lt;/b&gt;" style="text;html=1;strokeColor=none;fillColor=none;align=center;verticalAlign=middle;whiteSpace=wrap;rounded=0;" vertex="1" parent="1">
          <mxGeometry x="955" y="770" width="75" height="20" as="geometry" />
        </mxCell>
        <mxCell id="z-uqwMR72b3MVvRLqWOY-87" value="&lt;font style=&quot;font-size: 20px&quot;&gt;&lt;b&gt;用户子域&lt;/b&gt;&lt;/font&gt;" style="text;html=1;strokeColor=none;fillColor=none;align=center;verticalAlign=middle;whiteSpace=wrap;rounded=0;fontColor=#3333FF;" vertex="1" parent="1">
          <mxGeometry x="950" y="720" width="100" height="20" as="geometry" />
        </mxCell>
        <mxCell id="z-uqwMR72b3MVvRLqWOY-89" value="属性" style="rounded=0;whiteSpace=wrap;html=1;dashed=1;fillColor=#60a917;strokeColor=#2D7600;fontStyle=1;fontSize=12;fontColor=#ffffff;" vertex="1" parent="1">
          <mxGeometry x="155" y="950" width="60" height="30" as="geometry" />
        </mxCell>
        <mxCell id="z-uqwMR72b3MVvRLqWOY-90" value="模板" style="rounded=0;whiteSpace=wrap;html=1;dashed=1;fillColor=#60a917;strokeColor=#2D7600;fontStyle=1;fontSize=12;fontColor=#ffffff;" vertex="1" parent="1">
          <mxGeometry x="225" y="950" width="60" height="30" as="geometry" />
        </mxCell>
        <mxCell id="z-uqwMR72b3MVvRLqWOY-93" value="&lt;b&gt;&lt;font style=&quot;font-size: 13px&quot;&gt;商品上下文&lt;/font&gt;&lt;/b&gt;" style="text;html=1;strokeColor=none;fillColor=none;align=center;verticalAlign=middle;whiteSpace=wrap;rounded=0;" vertex="1" parent="1">
          <mxGeometry x="190" y="887" width="70" height="20" as="geometry" />
        </mxCell>
        <mxCell id="z-uqwMR72b3MVvRLqWOY-98" value="属性" style="rounded=0;whiteSpace=wrap;html=1;dashed=1;fillColor=#60a917;strokeColor=#2D7600;fontStyle=1;fontSize=12;fontColor=#ffffff;" vertex="1" parent="1">
          <mxGeometry x="25" y="1090" width="60" height="30" as="geometry" />
        </mxCell>
        <mxCell id="z-uqwMR72b3MVvRLqWOY-99" value="品牌" style="rounded=0;whiteSpace=wrap;html=1;dashed=1;fillColor=#60a917;strokeColor=#2D7600;fontStyle=1;fontSize=12;fontColor=#ffffff;" vertex="1" parent="1">
          <mxGeometry x="105" y="1090" width="60" height="30" as="geometry" />
        </mxCell>
        <mxCell id="z-uqwMR72b3MVvRLqWOY-103" value="" style="ellipse;whiteSpace=wrap;html=1;gradientColor=#ffffff;dashed=1;fontStyle=1" vertex="1" parent="1">
          <mxGeometry x="830" y="263" width="180" height="167" as="geometry" />
        </mxCell>
        <mxCell id="z-uqwMR72b3MVvRLqWOY-104" value="安装单据" style="rounded=0;whiteSpace=wrap;html=1;dashed=1;fillColor=#ffe6cc;strokeColor=#d79b00;fontStyle=1;fontSize=12;" vertex="1" parent="1">
          <mxGeometry x="890" y="293" width="60" height="30" as="geometry" />
        </mxCell>
        <mxCell id="z-uqwMR72b3MVvRLqWOY-105" value="商品清单" style="rounded=0;whiteSpace=wrap;html=1;dashed=1;fillColor=#60a917;strokeColor=#2D7600;fontColor=#ffffff;fontStyle=1;fontSize=12;" vertex="1" parent="1">
          <mxGeometry x="857" y="333" width="60" height="30" as="geometry" />
        </mxCell>
        <mxCell id="z-uqwMR72b3MVvRLqWOY-106" value="地址" style="rounded=0;whiteSpace=wrap;html=1;dashed=1;fillColor=#60a917;strokeColor=#2D7600;fontColor=#ffffff;fontStyle=1;fontSize=12;" vertex="1" parent="1">
          <mxGeometry x="944" y="333" width="60" height="30" as="geometry" />
        </mxCell>
        <mxCell id="z-uqwMR72b3MVvRLqWOY-107" value="安装人员" style="rounded=0;whiteSpace=wrap;html=1;dashed=1;fillColor=#60a917;strokeColor=#2D7600;fontColor=#ffffff;fontStyle=1;fontSize=12;" vertex="1" parent="1">
          <mxGeometry x="900" y="373" width="60" height="30" as="geometry" />
        </mxCell>
        <mxCell id="z-uqwMR72b3MVvRLqWOY-108" value="" style="ellipse;whiteSpace=wrap;html=1;gradientColor=#ffffff;dashed=1;fontStyle=1" vertex="1" parent="1">
          <mxGeometry x="930" y="443" width="180" height="167" as="geometry" />
        </mxCell>
        <mxCell id="z-uqwMR72b3MVvRLqWOY-109" value="验收单据" style="rounded=0;whiteSpace=wrap;html=1;dashed=1;fillColor=#ffe6cc;strokeColor=#d79b00;fontStyle=1;fontSize=12;" vertex="1" parent="1">
          <mxGeometry x="990" y="473" width="60" height="30" as="geometry" />
        </mxCell>
        <mxCell id="z-uqwMR72b3MVvRLqWOY-110" value="商品清单" style="rounded=0;whiteSpace=wrap;html=1;dashed=1;fillColor=#60a917;strokeColor=#2D7600;fontColor=#ffffff;fontStyle=1;fontSize=12;" vertex="1" parent="1">
          <mxGeometry x="957" y="513" width="60" height="30" as="geometry" />
        </mxCell>
        <mxCell id="z-uqwMR72b3MVvRLqWOY-111" value="地址" style="rounded=0;whiteSpace=wrap;html=1;dashed=1;fillColor=#60a917;strokeColor=#2D7600;fontColor=#ffffff;fontStyle=1;fontSize=12;" vertex="1" parent="1">
          <mxGeometry x="1044" y="513" width="60" height="30" as="geometry" />
        </mxCell>
        <mxCell id="z-uqwMR72b3MVvRLqWOY-112" value="验收人员" style="rounded=0;whiteSpace=wrap;html=1;dashed=1;fillColor=#60a917;strokeColor=#2D7600;fontColor=#ffffff;fontStyle=1;fontSize=12;" vertex="1" parent="1">
          <mxGeometry x="1000" y="553" width="60" height="30" as="geometry" />
        </mxCell>
        <mxCell id="z-uqwMR72b3MVvRLqWOY-115" value="" style="curved=1;endArrow=none;html=1;dashed=1;strokeWidth=2;endFill=0;exitX=0.61;exitY=0.012;exitDx=0;exitDy=0;exitPerimeter=0;" edge="1" parent="1">
          <mxGeometry width="50" height="50" relative="1" as="geometry">
            <mxPoint x="552.4000000000001" y="54.879999999999995" as="sourcePoint" />
            <mxPoint x="650" y="450" as="targetPoint" />
            <Array as="points">
              <mxPoint x="530" y="140" />
              <mxPoint x="510" y="260" />
              <mxPoint x="530" y="430" />
            </Array>
          </mxGeometry>
        </mxCell>
        <mxCell id="z-uqwMR72b3MVvRLqWOY-116" value="&lt;font style=&quot;font-size: 19px&quot; color=&quot;#3333ff&quot;&gt;&lt;b&gt;账务子域&lt;/b&gt;&lt;/font&gt;" style="text;html=1;strokeColor=none;fillColor=none;align=center;verticalAlign=middle;whiteSpace=wrap;rounded=0;" vertex="1" parent="1">
          <mxGeometry x="555" y="353" width="85" height="20" as="geometry" />
        </mxCell>
        <mxCell id="z-uqwMR72b3MVvRLqWOY-117" value="" style="ellipse;whiteSpace=wrap;html=1;gradientColor=#ffffff;dashed=1;fontStyle=1" vertex="1" parent="1">
          <mxGeometry x="551" y="110" width="160" height="162" as="geometry" />
        </mxCell>
        <mxCell id="z-uqwMR72b3MVvRLqWOY-118" value="账单单据" style="rounded=0;whiteSpace=wrap;html=1;dashed=1;fillColor=#ffe6cc;strokeColor=#d79b00;fontStyle=1;fontSize=12;" vertex="1" parent="1">
          <mxGeometry x="597" y="152" width="60" height="30" as="geometry" />
        </mxCell>
        <mxCell id="z-uqwMR72b3MVvRLqWOY-119" value="订单" style="rounded=0;whiteSpace=wrap;html=1;dashed=1;fillColor=#60a917;strokeColor=#2D7600;fontColor=#ffffff;fontStyle=1;fontSize=12;" vertex="1" parent="1">
          <mxGeometry x="569" y="194" width="60" height="28" as="geometry" />
        </mxCell>
        <mxCell id="z-uqwMR72b3MVvRLqWOY-120" value="&lt;b&gt;账务上下文&lt;/b&gt;" style="text;html=1;strokeColor=none;fillColor=none;align=center;verticalAlign=middle;whiteSpace=wrap;rounded=0;" vertex="1" parent="1">
          <mxGeometry x="596" y="122" width="70" height="20" as="geometry" />
        </mxCell>
        <mxCell id="z-uqwMR72b3MVvRLqWOY-121" value="客户" style="rounded=0;whiteSpace=wrap;html=1;dashed=1;fillColor=#60a917;strokeColor=#2D7600;fontColor=#ffffff;fontStyle=1;fontSize=12;" vertex="1" parent="1">
          <mxGeometry x="639" y="194" width="60" height="30" as="geometry" />
        </mxCell>
        <mxCell id="z-uqwMR72b3MVvRLqWOY-122" value="认证" style="rounded=0;whiteSpace=wrap;html=1;dashed=1;fillColor=#60a917;strokeColor=#2D7600;fontStyle=1;fontSize=12;fontColor=#ffffff;" vertex="1" parent="1">
          <mxGeometry x="987" y="837" width="60" height="30" as="geometry" />
        </mxCell>
        <mxCell id="z-uqwMR72b3MVvRLqWOY-139" value="对账" style="rounded=0;whiteSpace=wrap;html=1;dashed=1;fillColor=#60a917;strokeColor=#2D7600;fontColor=#ffffff;fontStyle=1;fontSize=12;" vertex="1" parent="1">
          <mxGeometry x="598" y="228" width="60" height="28" as="geometry" />
        </mxCell>
        <mxCell id="z-uqwMR72b3MVvRLqWOY-140" value="" style="ellipse;whiteSpace=wrap;html=1;gradientColor=#ffffff;dashed=1;fontStyle=1" vertex="1" parent="1">
          <mxGeometry x="220" y="1045.5" width="150" height="114.5" as="geometry" />
        </mxCell>
        <mxCell id="z-uqwMR72b3MVvRLqWOY-141" value="属性" style="rounded=0;whiteSpace=wrap;html=1;dashed=1;fillColor=#ffe6cc;strokeColor=#d79b00;fontStyle=1;fontSize=12;" vertex="1" parent="1">
          <mxGeometry x="260.5" y="1058" width="60" height="30" as="geometry" />
        </mxCell>
        <mxCell id="z-uqwMR72b3MVvRLqWOY-142" value="属性值" style="rounded=0;whiteSpace=wrap;html=1;dashed=1;fillColor=#60a917;strokeColor=#2D7600;fontStyle=1;fontSize=12;fontColor=#ffffff;" vertex="1" parent="1">
          <mxGeometry x="229" y="1100" width="60" height="30" as="geometry" />
        </mxCell>
        <mxCell id="z-uqwMR72b3MVvRLqWOY-143" value="模板" style="rounded=0;whiteSpace=wrap;html=1;dashed=1;fillColor=#60a917;strokeColor=#2D7600;fontStyle=1;fontSize=12;fontColor=#ffffff;" vertex="1" parent="1">
          <mxGeometry x="301" y="1100" width="60" height="30" as="geometry" />
        </mxCell>
        <mxCell id="z-uqwMR72b3MVvRLqWOY-169" value="" style="ellipse;whiteSpace=wrap;html=1;gradientColor=#ffffff;dashed=1;fontStyle=1" vertex="1" parent="1">
          <mxGeometry x="404" y="50" width="110" height="92" as="geometry" />
        </mxCell>
        <mxCell id="z-uqwMR72b3MVvRLqWOY-170" value="聚合根" style="rounded=0;whiteSpace=wrap;html=1;dashed=1;fillColor=#ffe6cc;strokeColor=#d79b00;fontStyle=1;fontSize=12;" vertex="1" parent="1">
          <mxGeometry x="435" y="92" width="50" height="30" as="geometry" />
        </mxCell>
        <mxCell id="z-uqwMR72b3MVvRLqWOY-171" value="&lt;b&gt;信用子域&lt;/b&gt;" style="text;html=1;strokeColor=none;fillColor=none;align=center;verticalAlign=middle;whiteSpace=wrap;rounded=0;" vertex="1" parent="1">
          <mxGeometry x="434" y="62" width="60" height="20" as="geometry" />
        </mxCell>
        <mxCell id="z-uqwMR72b3MVvRLqWOY-172" value="" style="ellipse;whiteSpace=wrap;html=1;gradientColor=#ffffff;dashed=1;fontStyle=1" vertex="1" parent="1">
          <mxGeometry x="305" y="169" width="110" height="92" as="geometry" />
        </mxCell>
        <mxCell id="z-uqwMR72b3MVvRLqWOY-173" value="聚合根" style="rounded=0;whiteSpace=wrap;html=1;dashed=1;fillColor=#ffe6cc;strokeColor=#d79b00;fontStyle=1;fontSize=12;" vertex="1" parent="1">
          <mxGeometry x="336" y="211" width="50" height="30" as="geometry" />
        </mxCell>
        <mxCell id="z-uqwMR72b3MVvRLqWOY-174" value="&lt;b&gt;允限销子域&lt;/b&gt;" style="text;html=1;strokeColor=none;fillColor=none;align=center;verticalAlign=middle;whiteSpace=wrap;rounded=0;" vertex="1" parent="1">
          <mxGeometry x="335" y="181" width="60" height="20" as="geometry" />
        </mxCell>
        <mxCell id="z-uqwMR72b3MVvRLqWOY-175" value="" style="ellipse;whiteSpace=wrap;html=1;gradientColor=#ffffff;dashed=1;fontStyle=1" vertex="1" parent="1">
          <mxGeometry x="404" y="238" width="110" height="92" as="geometry" />
        </mxCell>
        <mxCell id="z-uqwMR72b3MVvRLqWOY-176" value="聚合根" style="rounded=0;whiteSpace=wrap;html=1;dashed=1;fillColor=#ffe6cc;strokeColor=#d79b00;fontStyle=1;fontSize=12;" vertex="1" parent="1">
          <mxGeometry x="435" y="280" width="50" height="30" as="geometry" />
        </mxCell>
        <mxCell id="z-uqwMR72b3MVvRLqWOY-177" value="&lt;b&gt;客户子域&lt;/b&gt;" style="text;html=1;strokeColor=none;fillColor=none;align=center;verticalAlign=middle;whiteSpace=wrap;rounded=0;" vertex="1" parent="1">
          <mxGeometry x="434" y="250" width="60" height="20" as="geometry" />
        </mxCell>
        <mxCell id="z-uqwMR72b3MVvRLqWOY-178" value="" style="ellipse;whiteSpace=wrap;html=1;gradientColor=#ffffff;dashed=1;fontStyle=1" vertex="1" parent="1">
          <mxGeometry x="334" y="338" width="110" height="92" as="geometry" />
        </mxCell>
        <mxCell id="z-uqwMR72b3MVvRLqWOY-179" value="聚合根" style="rounded=0;whiteSpace=wrap;html=1;dashed=1;fillColor=#ffe6cc;strokeColor=#d79b00;fontStyle=1;fontSize=12;" vertex="1" parent="1">
          <mxGeometry x="365" y="380" width="50" height="30" as="geometry" />
        </mxCell>
        <mxCell id="z-uqwMR72b3MVvRLqWOY-180" value="&lt;b&gt;销售价格&lt;/b&gt;" style="text;html=1;strokeColor=none;fillColor=none;align=center;verticalAlign=middle;whiteSpace=wrap;rounded=0;" vertex="1" parent="1">
          <mxGeometry x="364" y="350" width="60" height="20" as="geometry" />
        </mxCell>
        <mxCell id="z-uqwMR72b3MVvRLqWOY-181" value="" style="ellipse;whiteSpace=wrap;html=1;gradientColor=#ffffff;dashed=1;fontStyle=1" vertex="1" parent="1">
          <mxGeometry x="454" y="408" width="110" height="92" as="geometry" />
        </mxCell>
        <mxCell id="z-uqwMR72b3MVvRLqWOY-182" value="聚合根" style="rounded=0;whiteSpace=wrap;html=1;dashed=1;fillColor=#ffe6cc;strokeColor=#d79b00;fontStyle=1;fontSize=12;" vertex="1" parent="1">
          <mxGeometry x="485" y="450" width="50" height="30" as="geometry" />
        </mxCell>
        <mxCell id="z-uqwMR72b3MVvRLqWOY-183" value="&lt;b&gt;销售履约&lt;/b&gt;" style="text;html=1;strokeColor=none;fillColor=none;align=center;verticalAlign=middle;whiteSpace=wrap;rounded=0;" vertex="1" parent="1">
          <mxGeometry x="484" y="420" width="60" height="20" as="geometry" />
        </mxCell>
        <mxCell id="z-uqwMR72b3MVvRLqWOY-184" value="" style="ellipse;whiteSpace=wrap;html=1;gradientColor=#ffffff;dashed=1;fontStyle=1" vertex="1" parent="1">
          <mxGeometry x="325" y="449" width="110" height="92" as="geometry" />
        </mxCell>
        <mxCell id="z-uqwMR72b3MVvRLqWOY-185" value="聚合根" style="rounded=0;whiteSpace=wrap;html=1;dashed=1;fillColor=#ffe6cc;strokeColor=#d79b00;fontStyle=1;fontSize=12;" vertex="1" parent="1">
          <mxGeometry x="356" y="491" width="50" height="30" as="geometry" />
        </mxCell>
        <mxCell id="z-uqwMR72b3MVvRLqWOY-186" value="&lt;b&gt;销售合同&lt;/b&gt;" style="text;html=1;strokeColor=none;fillColor=none;align=center;verticalAlign=middle;whiteSpace=wrap;rounded=0;" vertex="1" parent="1">
          <mxGeometry x="355" y="461" width="60" height="20" as="geometry" />
        </mxCell>
        <mxCell id="z-uqwMR72b3MVvRLqWOY-187" value="" style="ellipse;whiteSpace=wrap;html=1;gradientColor=#ffffff;dashed=1;fontStyle=1" vertex="1" parent="1">
          <mxGeometry x="464" y="548" width="110" height="92" as="geometry" />
        </mxCell>
        <mxCell id="z-uqwMR72b3MVvRLqWOY-188" value="聚合根" style="rounded=0;whiteSpace=wrap;html=1;dashed=1;fillColor=#ffe6cc;strokeColor=#d79b00;fontStyle=1;fontSize=12;" vertex="1" parent="1">
          <mxGeometry x="495" y="590" width="50" height="30" as="geometry" />
        </mxCell>
        <mxCell id="z-uqwMR72b3MVvRLqWOY-189" value="&lt;b&gt;销售预测&lt;/b&gt;" style="text;html=1;strokeColor=none;fillColor=none;align=center;verticalAlign=middle;whiteSpace=wrap;rounded=0;" vertex="1" parent="1">
          <mxGeometry x="494" y="560" width="60" height="20" as="geometry" />
        </mxCell>
        <mxCell id="z-uqwMR72b3MVvRLqWOY-190" value="" style="ellipse;whiteSpace=wrap;html=1;gradientColor=#ffffff;dashed=1;fontStyle=1" vertex="1" parent="1">
          <mxGeometry x="324" y="588" width="110" height="92" as="geometry" />
        </mxCell>
        <mxCell id="z-uqwMR72b3MVvRLqWOY-191" value="聚合根" style="rounded=0;whiteSpace=wrap;html=1;dashed=1;fillColor=#ffe6cc;strokeColor=#d79b00;fontStyle=1;fontSize=12;" vertex="1" parent="1">
          <mxGeometry x="355" y="630" width="50" height="30" as="geometry" />
        </mxCell>
        <mxCell id="z-uqwMR72b3MVvRLqWOY-192" value="&lt;b&gt;销售订单&lt;/b&gt;" style="text;html=1;strokeColor=none;fillColor=none;align=center;verticalAlign=middle;whiteSpace=wrap;rounded=0;" vertex="1" parent="1">
          <mxGeometry x="354" y="600" width="60" height="20" as="geometry" />
        </mxCell>
        <mxCell id="z-uqwMR72b3MVvRLqWOY-193" value="" style="ellipse;whiteSpace=wrap;html=1;gradientColor=#ffffff;dashed=1;fontStyle=1" vertex="1" parent="1">
          <mxGeometry x="404" y="728" width="126" height="92" as="geometry" />
        </mxCell>
        <mxCell id="z-uqwMR72b3MVvRLqWOY-194" value="聚合根" style="rounded=0;whiteSpace=wrap;html=1;dashed=1;fillColor=#ffe6cc;strokeColor=#d79b00;fontStyle=1;fontSize=12;" vertex="1" parent="1">
          <mxGeometry x="435" y="770" width="50" height="30" as="geometry" />
        </mxCell>
        <mxCell id="z-uqwMR72b3MVvRLqWOY-195" value="&lt;b&gt;供应商子域&lt;/b&gt;" style="text;html=1;strokeColor=none;fillColor=none;align=center;verticalAlign=middle;whiteSpace=wrap;rounded=0;" vertex="1" parent="1">
          <mxGeometry x="434" y="740" width="60" height="20" as="geometry" />
        </mxCell>
        <mxCell id="z-uqwMR72b3MVvRLqWOY-196" value="" style="ellipse;whiteSpace=wrap;html=1;gradientColor=#ffffff;dashed=1;fontStyle=1" vertex="1" parent="1">
          <mxGeometry x="624" y="728" width="110" height="92" as="geometry" />
        </mxCell>
        <mxCell id="z-uqwMR72b3MVvRLqWOY-197" value="聚合根" style="rounded=0;whiteSpace=wrap;html=1;dashed=1;fillColor=#ffe6cc;strokeColor=#d79b00;fontStyle=1;fontSize=12;" vertex="1" parent="1">
          <mxGeometry x="655" y="770" width="50" height="30" as="geometry" />
        </mxCell>
        <mxCell id="z-uqwMR72b3MVvRLqWOY-198" value="&lt;b&gt;询价子域&lt;/b&gt;" style="text;html=1;strokeColor=none;fillColor=none;align=center;verticalAlign=middle;whiteSpace=wrap;rounded=0;" vertex="1" parent="1">
          <mxGeometry x="654" y="740" width="60" height="20" as="geometry" />
        </mxCell>
        <mxCell id="z-uqwMR72b3MVvRLqWOY-199" value="" style="ellipse;whiteSpace=wrap;html=1;gradientColor=#ffffff;dashed=1;fontStyle=1" vertex="1" parent="1">
          <mxGeometry x="414" y="848" width="110" height="92" as="geometry" />
        </mxCell>
        <mxCell id="z-uqwMR72b3MVvRLqWOY-200" value="聚合根" style="rounded=0;whiteSpace=wrap;html=1;dashed=1;fillColor=#ffe6cc;strokeColor=#d79b00;fontStyle=1;fontSize=12;" vertex="1" parent="1">
          <mxGeometry x="445" y="890" width="50" height="30" as="geometry" />
        </mxCell>
        <mxCell id="z-uqwMR72b3MVvRLqWOY-201" value="&lt;b&gt;请购子域&lt;/b&gt;" style="text;html=1;strokeColor=none;fillColor=none;align=center;verticalAlign=middle;whiteSpace=wrap;rounded=0;" vertex="1" parent="1">
          <mxGeometry x="444" y="860" width="60" height="20" as="geometry" />
        </mxCell>
        <mxCell id="z-uqwMR72b3MVvRLqWOY-204" value="" style="ellipse;whiteSpace=wrap;html=1;gradientColor=#ffffff;dashed=1;fontStyle=1" vertex="1" parent="1">
          <mxGeometry x="644" y="838" width="110" height="92" as="geometry" />
        </mxCell>
        <mxCell id="z-uqwMR72b3MVvRLqWOY-205" value="聚合根" style="rounded=0;whiteSpace=wrap;html=1;dashed=1;fillColor=#ffe6cc;strokeColor=#d79b00;fontStyle=1;fontSize=12;" vertex="1" parent="1">
          <mxGeometry x="675" y="880" width="50" height="30" as="geometry" />
        </mxCell>
        <mxCell id="z-uqwMR72b3MVvRLqWOY-206" value="&lt;b&gt;退货子域&lt;/b&gt;" style="text;html=1;strokeColor=none;fillColor=none;align=center;verticalAlign=middle;whiteSpace=wrap;rounded=0;" vertex="1" parent="1">
          <mxGeometry x="674" y="850" width="60" height="20" as="geometry" />
        </mxCell>
        <mxCell id="z-uqwMR72b3MVvRLqWOY-207" value="" style="ellipse;whiteSpace=wrap;html=1;gradientColor=#ffffff;dashed=1;fontStyle=1" vertex="1" parent="1">
          <mxGeometry x="424" y="968" width="110" height="92" as="geometry" />
        </mxCell>
        <mxCell id="z-uqwMR72b3MVvRLqWOY-208" value="聚合根" style="rounded=0;whiteSpace=wrap;html=1;dashed=1;fillColor=#ffe6cc;strokeColor=#d79b00;fontStyle=1;fontSize=12;" vertex="1" parent="1">
          <mxGeometry x="455" y="1010" width="50" height="30" as="geometry" />
        </mxCell>
        <mxCell id="z-uqwMR72b3MVvRLqWOY-209" value="&lt;b&gt;采购价格子域&lt;/b&gt;" style="text;html=1;strokeColor=none;fillColor=none;align=center;verticalAlign=middle;whiteSpace=wrap;rounded=0;" vertex="1" parent="1">
          <mxGeometry x="454" y="980" width="60" height="20" as="geometry" />
        </mxCell>
        <mxCell id="z-uqwMR72b3MVvRLqWOY-210" value="" style="ellipse;whiteSpace=wrap;html=1;gradientColor=#ffffff;dashed=1;fontStyle=1" vertex="1" parent="1">
          <mxGeometry x="644" y="968" width="110" height="92" as="geometry" />
        </mxCell>
        <mxCell id="z-uqwMR72b3MVvRLqWOY-211" value="聚合根" style="rounded=0;whiteSpace=wrap;html=1;dashed=1;fillColor=#ffe6cc;strokeColor=#d79b00;fontStyle=1;fontSize=12;" vertex="1" parent="1">
          <mxGeometry x="675" y="1010" width="50" height="30" as="geometry" />
        </mxCell>
        <mxCell id="z-uqwMR72b3MVvRLqWOY-212" value="&lt;b&gt;采购合同子域&lt;/b&gt;" style="text;html=1;strokeColor=none;fillColor=none;align=center;verticalAlign=middle;whiteSpace=wrap;rounded=0;" vertex="1" parent="1">
          <mxGeometry x="674" y="980" width="60" height="20" as="geometry" />
        </mxCell>
        <mxCell id="z-uqwMR72b3MVvRLqWOY-213" value="" style="ellipse;whiteSpace=wrap;html=1;gradientColor=#ffffff;dashed=1;fontStyle=1" vertex="1" parent="1">
          <mxGeometry x="434" y="1088" width="110" height="92" as="geometry" />
        </mxCell>
        <mxCell id="z-uqwMR72b3MVvRLqWOY-214" value="聚合根" style="rounded=0;whiteSpace=wrap;html=1;dashed=1;fillColor=#ffe6cc;strokeColor=#d79b00;fontStyle=1;fontSize=12;" vertex="1" parent="1">
          <mxGeometry x="465" y="1130" width="50" height="30" as="geometry" />
        </mxCell>
        <mxCell id="z-uqwMR72b3MVvRLqWOY-215" value="&lt;b&gt;采购履约子域&lt;/b&gt;" style="text;html=1;strokeColor=none;fillColor=none;align=center;verticalAlign=middle;whiteSpace=wrap;rounded=0;" vertex="1" parent="1">
          <mxGeometry x="464" y="1100" width="60" height="20" as="geometry" />
        </mxCell>
        <mxCell id="z-uqwMR72b3MVvRLqWOY-216" value="" style="ellipse;whiteSpace=wrap;html=1;gradientColor=#ffffff;dashed=1;fontStyle=1" vertex="1" parent="1">
          <mxGeometry x="664" y="1078" width="110" height="92" as="geometry" />
        </mxCell>
        <mxCell id="z-uqwMR72b3MVvRLqWOY-217" value="聚合根" style="rounded=0;whiteSpace=wrap;html=1;dashed=1;fillColor=#ffe6cc;strokeColor=#d79b00;fontStyle=1;fontSize=12;" vertex="1" parent="1">
          <mxGeometry x="695" y="1120" width="50" height="30" as="geometry" />
        </mxCell>
        <mxCell id="z-uqwMR72b3MVvRLqWOY-218" value="&lt;b&gt;采购订单子域&lt;/b&gt;" style="text;html=1;strokeColor=none;fillColor=none;align=center;verticalAlign=middle;whiteSpace=wrap;rounded=0;" vertex="1" parent="1">
          <mxGeometry x="694" y="1090" width="60" height="20" as="geometry" />
        </mxCell>
        <mxCell id="z-uqwMR72b3MVvRLqWOY-219" value="&lt;font size=&quot;1&quot;&gt;&lt;b style=&quot;font-size: 20px&quot;&gt;营销域&lt;/b&gt;&lt;/font&gt;" style="text;html=1;align=center;verticalAlign=middle;resizable=0;points=[];autosize=1;strokeColor=none;fontSize=12;fontColor=#3333FF;" vertex="1" parent="1">
          <mxGeometry x="130" y="490" width="80" height="40" as="geometry" />
        </mxCell>
      </root>
    </mxGraphModel>
  </diagram>
</mxfile>
